<?xml version="1.0" standalone="no"?>
<!DOCTYPE svg PUBLIC "-//W3C//DTD SVG 20010904//EN"
 "http://www.w3.org/TR/2001/REC-SVG-20010904/DTD/svg10.dtd">
<svg version="1.0" xmlns="http://www.w3.org/2000/svg"
 width="128.000000pt" height="128.000000pt" viewBox="0 0 128.000000 128.000000"
 preserveAspectRatio="xMidYMid meet">

<g transform="translate(0.000000,128.000000) scale(0.100000,-0.100000)"
fill="#000000" stroke="none">
<path d="M471 1124 c-130 -35 -235 -119 -266 -214 -24 -71 -21 -171 5 -225 27
-57 76 -99 104 -91 90 26 191 12 255 -34 45 -33 74 -80 69 -112 -5 -37 -22
-29 -50 21 -36 65 -96 96 -188 96 -52 0 -74 -5 -110 -27 -92 -54 -120 -166
-68 -279 22 -49 31 -58 78 -78 83 -36 175 -51 310 -51 141 0 228 17 303 57
117 65 178 162 178 285 0 84 -10 122 -45 182 -49 83 -141 126 -283 134 -51 2
-93 8 -93 12 0 39 151 39 253 0 70 -26 80 -21 103 58 15 52 15 133 -2 175 -9
23 -96 66 -180 87 -95 24 -290 27 -373 4z"/>
</g>
</svg>
